<?xml version="1.0" encoding="UTF-8"?>
<!DOCTYPE svg PUBLIC "-//W3C//DTD SVG 1.1//EN" "http://www.w3.org/Graphics/SVG/1.1/DTD/svg11.dtd">
<!-- Creator: CorelDRAW X7 -->
<svg xmlns="http://www.w3.org/2000/svg" xml:space="preserve" width="5.25in" height="5.2in" version="1.1" style="shape-rendering:geometricPrecision; text-rendering:geometricPrecision; image-rendering:optimizeQuality; fill-rule:evenodd; clip-rule:evenodd"
viewBox="0 0 5250 5200"
 xmlns:xlink="http://www.w3.org/1999/xlink">
 <defs>
  <style type="text/css">
   <![CDATA[
    .fil0 {fill:#A734FD}
   ]]>
  </style>
 </defs>
 <g id="Layer_x0020_1">
  <metadata id="CorelCorpID_0Corel-Layer"/>
  <path class="fil0" d="M4875 933l-1083 0 0 -210 114 -46c32,-12 52,-43 52,-77 0,-34 -20,-65 -52,-77l-1250 -500c-10,-4 -20,-6 -31,-6 -11,0 -21,2 -31,6l-1250 500c-32,12 -52,43 -52,77 0,34 20,65 52,77l364 146 0 110 -1333 0c-184,0 -333,150 -333,334l0 2833c0,184 149,333 333,333l1718 0 -111 334 -274 0c-46,0 -83,37 -83,83l0 250c0,46 37,83 83,83l1834 0c46,0 83,-37 83,-83l0 -250c0,-46 -37,-83 -83,-83l-274 0 -111 -334 1718 0c184,0 333,-149 333,-333l0 -2833c0,-184 -149,-334 -333,-334l0 0zm-1083 1167c0,46 -38,83 -84,83 -46,0 -83,-37 -83,-83 0,-46 37,-83 83,-83 46,0 84,37 84,83l0 0zm-2193 -1500l1026 -410 1026 410 -1026 410 -1026 -410zm2026 190l0 143 -83 0 0 -110 83 -33zm-250 100l0 820c-498,186 -1002,186 -1500,0l0 -820 719 287c10,4 20,6 31,6 11,0 21,-2 31,-6l719 -287zm83 4043l0 84 -1666 0 0 -84 1666 0zm-1301 -166l111 -334 714 0 111 334 -936 0zm2885 -667c0,92 -75,167 -167,167l-4500 0c-92,0 -167,-75 -167,-167l0 -268 4834 0 0 268zm-4667 -167l-167 0 0 -2666c0,-92 75,-167 167,-167l1333 0 0 667c0,34 21,64 53,77 287,115 575,172 864,172 289,0 578,-57 864,-172 32,-13 53,-43 53,-77l0 -667 83 0 0 750c-100,35 -168,130 -168,236 0,138 112,250 250,250 138,0 250,-112 250,-250 0,-106 -67,-201 -168,-236 1,0 1,0 1,0 1,0 1,0 2,0l0 -750c363,1 709,11 1090,3 106,-2 171,53 160,160l0 2670 -4667 0z"/>
  <path class="fil0" d="M958 4017l-500 0c-46,0 -83,37 -83,83 0,46 37,83 83,83l500 0c46,0 84,-37 84,-83 0,-46 -38,-83 -84,-83l0 0z"/>
  <path class="fil0" d="M1292 4017l-84 0c-46,0 -83,37 -83,83 0,46 37,83 83,83l84 0c46,0 83,-37 83,-83 0,-46 -37,-83 -83,-83l0 0z"/>
  <path class="fil0" d="M792 3600l1666 0c46,0 84,-37 84,-83l0 -1000c0,-46 -38,-84 -84,-84l-1666 0c-46,0 -84,38 -84,84l0 1000c0,46 38,83 84,83l0 0zm24 -1045l1602 2 0 897 -1602 0 0 -899z"/>
  <path class="fil0" d="M792 2350l666 0c46,0 84,-37 84,-83 0,-46 -38,-84 -84,-84l-666 0c-46,0 -84,38 -84,84 0,46 38,83 84,83l0 0z"/>
  <path class="fil0" d="M792 2100l250 0c46,0 83,-37 83,-83 0,-46 -37,-84 -83,-84l-250 0c-46,0 -84,38 -84,84 0,46 38,83 84,83l0 0z"/>
  <path class="fil0" d="M2792 2600l1666 0c46,0 84,-37 84,-83 0,-46 -38,-84 -84,-84l-1666 0c-46,0 -84,38 -84,84 0,46 38,83 84,83z"/>
  <path class="fil0" d="M2792 2850l1666 0c46,0 84,-37 84,-83 0,-46 -38,-84 -84,-84l-1666 0c-46,0 -84,38 -84,84 0,46 38,83 84,83l0 0z"/>
  <path class="fil0" d="M2792 3100l1323 0c46,0 83,-37 83,-83 0,-46 -37,-84 -83,-84l-1323 0c-46,0 -84,38 -84,84 0,46 38,83 84,83l0 0z"/>
  <path class="fil0" d="M4458 2933l-83 0c-46,0 -83,38 -83,84 0,46 37,83 83,83l83 0c46,0 84,-37 84,-83 0,-46 -38,-84 -84,-84l0 0z"/>
  <path class="fil0" d="M2792 3350l1666 0c46,0 84,-37 84,-83 0,-46 -38,-84 -84,-84l-1666 0c-46,0 -84,38 -84,84 0,46 38,83 84,83l0 0z"/>
  <path class="fil0" d="M2792 3600l1323 0c46,0 83,-37 83,-83 0,-46 -37,-84 -83,-84l-1323 0c-46,0 -84,38 -84,84 0,46 38,83 84,83l0 0z"/>
  <path class="fil0" d="M4458 3433l-83 0c-46,0 -83,38 -83,84 0,46 37,83 83,83l83 0c46,0 84,-37 84,-83 0,-46 -38,-84 -84,-84l0 0z"/>
 </g>
</svg>
