<?xml version="1.0" encoding="UTF-8"?>
<!DOCTYPE svg PUBLIC "-//W3C//DTD SVG 1.1//EN" "http://www.w3.org/Graphics/SVG/1.1/DTD/svg11.dtd">
<!-- Creator: CorelDRAW X7 -->
<svg xmlns="http://www.w3.org/2000/svg" xml:space="preserve" width="5.25in" height="5.2in" version="1.1" style="shape-rendering:geometricPrecision; text-rendering:geometricPrecision; image-rendering:optimizeQuality; fill-rule:evenodd; clip-rule:evenodd"
viewBox="0 0 5250 5200"
 xmlns:xlink="http://www.w3.org/1999/xlink">
 <defs>
  <style type="text/css">
   <![CDATA[
    .fil0 {fill:#A734FD}
   ]]>
  </style>
 </defs>
 <g id="Layer_x0020_1">
  <metadata id="CorelCorpID_0Corel-Layer"/>
  <g id="_2958282144304">
   <path class="fil0" d="M5053 295l-4861 0c-99,0 -179,80 -179,178l0 3299c0,99 80,179 179,179l1005 0 20 96c22,102 105,180 206,198 -42,74 -66,159 -66,249 0,284 231,515 515,515 284,0 514,-231 514,-515 0,-89 -22,-172 -62,-245l427 0c-40,73 -62,156 -62,245 0,284 231,515 515,515 283,0 514,-231 514,-515 0,-89 -22,-174 -63,-247 108,-11 200,-91 224,-200l556 -2589 643 0 0 2314c0,15 -11,26 -25,26l-835 0c-42,0 -76,34 -76,76 0,43 34,77 76,77l835 0c99,0 179,-80 179,-179l0 -3299c0,-98 -80,-178 -179,-178l0 0zm-3181 4561c-199,0 -361,-162 -361,-362 0,-199 162,-361 361,-361 199,0 362,162 362,361 0,200 -163,362 -362,362zm1332 0c-199,0 -362,-162 -362,-362 0,-199 163,-361 362,-361 199,0 362,162 362,361 0,200 -163,362 -362,362zm1657 -3551c51,-47 83,-114 83,-189 0,-140 -114,-255 -255,-255l-241 0c-236,0 -443,167 -492,398l-10 46 -723 0c-43,0 -77,35 -77,77 0,42 34,76 77,76l690 0 -78 362 -2780 0c-78,0 -150,34 -199,95 -49,61 -67,138 -51,214l189 879c9,41 49,67 91,59 41,-9 68,-50 59,-91l-189 -879c-7,-30 1,-62 20,-86 20,-24 48,-37 80,-37l2842 0c37,0 67,-26 75,-61l134 -621c34,-161 178,-277 342,-277l241 0c57,0 103,45 103,101 0,57 -46,102 -103,102l-241 0c-68,0 -129,49 -143,117l-576 2680c-10,47 -52,80 -100,80l-101 0c-88,-71 -201,-115 -324,-115 -123,0 -236,44 -325,115l-682 0c-88,-71 -202,-115 -325,-115 -123,0 -236,44 -324,115l-81 0c-48,0 -90,-33 -100,-80l-158 -732c-8,-41 -49,-68 -91,-59 -41,9 -67,50 -58,91l103 483 -971 0c-14,0 -26,-11 -26,-26l0 -2314 2703 0c42,0 76,-34 76,-76 0,-42 -34,-77 -76,-77l-2703 0 0 -832c0,-14 12,-26 26,-26l4861 0c14,0 25,12 25,26l0 832 -217 0z"/>
   <circle class="fil0" cx="579" cy="874" r="150"/>
   <circle class="fil0" cx="1033" cy="874" r="150"/>
   <circle class="fil0" cx="1487" cy="874" r="150"/>
   <path class="fil0" d="M2763 3456l-450 0c-21,0 -42,9 -57,25 -14,15 -21,37 -19,58l22 282c4,39 37,71 77,71l404 0c40,0 73,-32 76,-71l24 -282c1,-21 -6,-43 -20,-58 -15,-16 -35,-25 -57,-25zm-94 282l-263 0 -10 -128 284 0 -11 128z"/>
   <path class="fil0" d="M1261 2552c8,35 39,61 76,61l535 0c44,1 81,-40 76,-84l-22 -281c-4,-40 -38,-71 -77,-71l-573 0c-48,-1 -86,47 -75,93l60 282zm518 -221l10 128 -391 0 -27 -128 408 0z"/>
   <path class="fil0" d="M1551 3456c-24,0 -45,11 -60,28 -15,18 -20,43 -16,65l61 282c8,35 39,61 75,61l366 0c22,0 43,-9 57,-26 14,-16 22,-36 20,-58l-24 -281c-3,-41 -36,-71 -76,-71l-403 0zm122 282l-28 -128 239 0 10 128 -221 0z"/>
   <path class="fil0" d="M1413 2817c-24,0 -45,10 -60,28 -15,18 -19,42 -15,64l61 283c7,35 38,60 75,60l451 0c21,0 42,-9 56,-25 15,-16 22,-37 20,-58l-24 -281c-2,-41 -36,-71 -76,-71l-488 0zm122 282l-27 -129 323 0 10 129 -306 0z"/>
   <path class="fil0" d="M2155 2542c2,40 36,71 76,71l614 0c41,0 73,-31 77,-71l23 -282c4,-43 -33,-84 -76,-83l-662 0c-43,-1 -81,40 -76,83l24 282zm631 -211l-11 128 -474 0 -10 -128 495 0z"/>
   <path class="fil0" d="M3151 3252l471 0c37,0 68,-25 75,-60l60 -283c5,-22 0,-46 -14,-64 -15,-18 -37,-28 -60,-28l-509 0c-40,0 -72,30 -76,71l-24 281c-1,21 6,42 21,58 15,16 35,25 56,25l0 0zm94 -282l343 0 -27 129 -327 0 11 -129z"/>
   <path class="fil0" d="M3204 2613l555 0c37,0 68,-26 76,-61l60 -282c11,-46 -27,-94 -75,-93l-593 0c-40,0 -73,31 -76,71l-24 281c-4,44 33,85 77,84l0 0zm93 -282l428 0 -27 128 -411 0 10 -128z"/>
   <path class="fil0" d="M2816 2817l-556 0c-21,0 -42,9 -57,25 -13,15 -21,37 -19,57l23 282c3,40 37,71 77,71l509 0c40,0 73,-31 76,-71l23 -282c2,-20 -6,-42 -20,-57 -15,-16 -34,-25 -56,-25l0 0zm-94 282l-368 0 -11 -129 390 0 -11 129z"/>
   <path class="fil0" d="M3099 3892l386 0c36,0 67,-26 75,-61l60 -282c5,-22 -1,-47 -15,-65 -14,-17 -36,-28 -60,-28l-424 0c-39,0 -72,30 -76,71l-22 281c-2,22 4,42 19,58 15,17 35,26 57,26l0 0zm93 -282l259 0 -28 128 -241 0 10 -128z"/>
   <path class="fil0" d="M1872 4363c-73,0 -131,59 -131,131 0,73 58,131 131,131 73,0 132,-58 132,-131 0,-72 -59,-131 -132,-131z"/>
   <path class="fil0" d="M3204 4363c-73,0 -132,59 -132,131 0,73 59,131 132,131 72,0 132,-58 132,-131 0,-72 -60,-131 -132,-131z"/>
  </g>
 </g>
</svg>
