<?xml version="1.0" encoding="UTF-8"?>
<!DOCTYPE svg PUBLIC "-//W3C//DTD SVG 1.1//EN" "http://www.w3.org/Graphics/SVG/1.1/DTD/svg11.dtd">
<!-- Creator: CorelDRAW X7 -->
<svg xmlns="http://www.w3.org/2000/svg" xml:space="preserve" width="5.25in" height="5.2in" version="1.1" style="shape-rendering:geometricPrecision; text-rendering:geometricPrecision; image-rendering:optimizeQuality; fill-rule:evenodd; clip-rule:evenodd"
viewBox="0 0 5250 5200"
 xmlns:xlink="http://www.w3.org/1999/xlink">
 <defs>
  <style type="text/css">
   <![CDATA[
    .fil2 {fill:#7F7F7F}
    .fil3 {fill:#8D8D8D}
    .fil1 {fill:#A4A4A4}
    .fil0 {fill:#A734FD}
   ]]>
  </style>
 </defs>
 <g id="Layer_x0020_1">
  <metadata id="CorelCorpID_0Corel-Layer"/>
  <path class="fil0" d="M3486 4914l629 0 0 132 -629 0 0 -132zm-2160 0l629 0 0 132 -629 0 0 -132zm2315 -510l319 0 0 358 -319 0 0 -358zm-2162 0l321 0 0 358 -319 0 -2 -358zm1794 -344l1052 0 1 154 -3 38 -1044 0 -3 -38 -3 -154zm-2043 192c-126,1 -109,8 -115,-36 -3,-26 1,-125 4,-153 52,-10 915,0 1042,0 6,40 10,128 -1,168 -1,3 -4,10 -4,8 -1,-1 -2,6 -4,8 -48,15 -767,4 -922,5zm-629 -915l4229 0 0 193c-338,0 -676,0 -1014,0 -168,0 -341,4 -507,-2 -93,-3 -416,-26 -467,27 -64,65 -1,127 81,130 84,2 169,-3 254,-3l1503 0 0 1080 -568 -3 0 -351c122,-15 259,23 328,-56 43,-51 56,-264 27,-343 -41,-116 -153,-101 -286,-101l-771 0c-131,-1 -245,-7 -279,108 -26,90 -16,289 35,341 70,70 208,36 323,51l2 354 -1539 -3 0 -351c123,-16 244,27 322,-62 50,-56 65,-247 30,-333 -47,-111 -141,-106 -283,-105l-771 0c-140,-1 -234,-3 -275,112 -33,92 -18,275 36,331 79,82 197,42 318,57l0 354 -568 0 0 -1078c335,0 671,0 1006,0l750 1c83,-4 133,-72 74,-132 -44,-45 -403,-21 -489,-21 -496,0 -992,0 -1490,0l-11 -195zm3009 -895l601 0 0 738c-17,11 20,5 -30,11 -75,8 -566,-2 -583,-6 -16,-71 -5,-293 -5,-380l-1 -335c9,-44 -7,-18 18,-28zm-1234 208l192 -1 38 4c0,96 15,197 -68,233 -99,44 -162,-35 -162,-122l0 -114zm-672 0l195 -1 38 4c0,103 15,203 -75,236 -109,40 -158,-52 -158,-145l0 -94zm1747 -233l-5 768c-78,17 -344,5 -442,5 -45,0 -399,12 -438,-10l0 -144c148,-35 193,-168 193,-302 -1,-241 -26,-236 -262,-236 -236,0 -273,-22 -273,226 -1,166 54,277 187,309 16,35 13,114 2,154l-392 2c-24,0 -49,1 -72,1l-52 -11 0 -143c147,-38 192,-166 192,-302 1,-247 -21,-236 -261,-236 -230,0 -278,-22 -276,226 0,168 57,271 188,311 1,2 3,5 3,7l4 146 -949 -2c-17,-69 -6,-939 -6,-1162l9 -65c66,-1 246,-101 311,-134 83,-42 77,-41 150,5 291,183 268,223 421,130 93,-56 179,-116 267,-166 75,30 325,222 385,219 55,-2 296,-192 378,-221 49,44 167,107 226,146 113,73 124,107 248,25 76,-50 155,-94 230,-146 59,-40 80,-7 224,88 43,28 76,46 117,75 42,28 76,49 131,16 397,-237 266,-238 469,-140 61,29 194,103 259,104l-5 1225 -244 0c-18,-83 -5,-377 -5,-482 0,-473 60,-413 -557,-413 -139,0 -352,-37 -355,127zm-1859 -578c-30,13 -65,-19 -97,-40 -322,-208 -267,-199 -441,-113 -315,155 -193,122 -532,122 -31,-327 185,-690 324,-878 92,-123 186,-205 303,-305 40,-34 45,-39 111,-39l1055 0c74,0 241,18 278,-28 28,-35 14,-86 -13,-107 -32,-24 -81,-17 -123,-17 -181,1 -1100,10 -1204,-3 0,-48 -6,-178 5,-215 19,-66 79,-59 154,-58l2160 0c667,0 586,-58 586,273 -106,13 -1022,4 -1204,3 -226,-1 -121,132 -117,135 52,41 1119,11 1334,17 110,3 332,266 398,350 131,165 357,573 321,872 -288,0 -219,28 -416,-67 -199,-97 -242,-147 -341,-79 -37,24 -282,182 -296,181 -15,0 -253,-154 -291,-178 -84,-53 -88,-54 -172,-1 -33,21 -275,182 -296,180l-290 -182c-138,-89 -184,40 -462,186l-307 -197c-98,-61 -160,14 -328,124 -28,19 -71,51 -99,64zm2534 -1833l-2842 0c-88,57 -130,48 -169,159 -24,66 -15,218 -15,297 -18,30 -63,59 -87,78 -100,77 -156,149 -234,232 -193,209 -359,554 -401,856 -8,57 -24,250 1,293 35,60 185,39 265,39 0,151 10,1165 -6,1225 -195,0 -179,61 -179,238 0,172 -31,241 150,265l0 1071c-83,9 -252,-27 -285,41 -23,50 3,96 39,108 42,15 730,6 811,6 0,119 -12,246 102,278 54,15 296,6 370,6 417,0 461,49 461,-284l1227 5c0,118 -9,241 102,273 42,11 695,12 736,-3 104,-35 95,-153 95,-270 134,-30 743,12 810,-12 34,-12 64,-53 39,-107 -32,-68 -201,-33 -284,-41l0 -1073c188,-22 150,-102 150,-283 0,-196 -8,-218 -213,-218l0 -1225c241,0 324,60 263,-341 -43,-291 -210,-644 -400,-848 -80,-86 -214,-242 -322,-295 0,-83 11,-245 -13,-312 -38,-105 -93,-109 -171,-158z"/>
  <path class="fil0" d="M3787 2893c-87,25 -74,127 0,144 31,7 240,6 269,-2 70,-20 72,-128 -11,-144 -38,-8 -227,-7 -258,2z"/>
  <path class="fil0" d="M3791 2581c-88,26 -82,126 -5,143 34,8 239,7 271,-2 70,-20 71,-127 -14,-143 -36,-8 -223,-7 -252,2z"/>
  <path class="fil0" d="M2034 846c-37,11 -41,8 -53,43 -67,192 164,277 145,39 -4,-57 -35,-99 -92,-82z"/>
  <path class="fil0" d="M3860 978c-52,16 -67,38 -60,134 5,60 36,105 101,85 81,-24 77,-257 -41,-219z"/>
  <path class="fil0" d="M1334 1050l0 41c0,134 152,139 152,10l0 -41c0,-134 -152,-125 -152,-10z"/>
  <path class="fil0" d="M2680 1068c-53,22 -57,75 -49,144 6,53 44,93 100,72 85,-31 73,-267 -51,-216z"/>
  <path class="fil0" d="M3345 847c-63,23 -67,62 -59,143 6,57 45,97 105,73 81,-33 63,-258 -46,-216z"/>
  <path class="fil1" d="M1740 3035l2 141 -941 0 0 -1217 -9 65c0,223 -11,1093 6,1162l949 2 -4 -146c0,-2 -2,-5 -3,-7z"/>
  <path class="fil2" d="M2566 3180c39,22 393,10 438,10 98,0 364,12 442,-5l5 -768c-27,52 -10,649 -11,763l-874 0z"/>
  <path class="fil2" d="M4211 3180l-608 0c0,-122 -15,-663 7,-738 -25,10 -9,-16 -18,28l1 335c0,87 -11,309 5,380 17,4 508,14 583,6 50,-6 13,0 30,-11z"/>
  <path class="fil3" d="M1897 3179l52 11c23,0 48,-1 72,-1l392 -2c11,-40 14,-119 -2,-154l3 146 -517 0z"/>
 </g>
</svg>
