<?xml version="1.0" encoding="UTF-8"?>
<!DOCTYPE svg PUBLIC "-//W3C//DTD SVG 1.1//EN" "http://www.w3.org/Graphics/SVG/1.1/DTD/svg11.dtd">
<!-- Creator: CorelDRAW X7 -->
<svg xmlns="http://www.w3.org/2000/svg" xml:space="preserve" width="5.2in" height="5.2in" version="1.1" style="shape-rendering:geometricPrecision; text-rendering:geometricPrecision; image-rendering:optimizeQuality; fill-rule:evenodd; clip-rule:evenodd"
viewBox="0 0 5200 5200"
 xmlns:xlink="http://www.w3.org/1999/xlink"
 enable-background="new 0 0 512 512">
 <defs>
  <style type="text/css">
   <![CDATA[
    .fil0 {fill:#A734FD}
   ]]>
  </style>
 </defs>
 <g id="Layer_x0020_1">
  <metadata id="CorelCorpID_0Corel-Layer"/>
  <g id="_1984960276816">
   <polygon class="fil0" points="186,3235 186,442 442,186 2373,186 2373,35 380,35 35,380 35,3297 380,3642 958,3642 958,3492 442,3492 "/>
   <polygon class="fil0" points="4560,442 4560,2365 4710,2365 4710,380 4366,35 2523,35 2523,186 4304,186 "/>
   <path class="fil0" d="M1858 3116l0 300 -300 0 0 451 300 0 0 300 451 0 0 -300 300 0 0 -451 -300 0 0 -300 -451 0zm601 451l0 150 -301 0 0 300 -150 0 0 -300 -300 0 0 -150 300 0 0 -301 150 0 0 301 301 0z"/>
   <polygon class="fil0" points="3636,4543 2633,4543 2448,5010 1530,5010 1259,4475 1259,3072 1665,2666 2084,2666 2084,2516 1603,2516 1108,3010 1108,4510 1438,5160 2550,5160 2735,4693 3534,4693 3719,5160 4202,5160 4202,5010 3821,5010 "/>
   <polygon class="fil0" points="4666,2516 3554,2516 3253,2816 3015,2816 2715,2516 2234,2516 2234,2666 2653,2666 2953,2966 3316,2966 3616,2666 4604,2666 5010,3072 5010,4475 4739,5010 4352,5010 4352,5160 4831,5160 5160,4510 5160,3010 "/>
   <polygon class="fil0" points="486,3111 486,1914 336,1914 336,3173 504,3341 958,3341 958,3191 566,3191 "/>
   <polygon class="fil0" points="4410,2365 4410,504 4241,336 504,336 336,504 336,1763 486,1763 486,566 566,486 4179,486 4260,566 4260,2365 "/>
   <path class="fil0" d="M3896 3356c124,0 225,-101 225,-225 0,-124 -101,-225 -225,-225 -124,0 -225,101 -225,225 0,124 101,225 225,225zm0 -300c41,0 75,34 75,75 0,42 -34,75 -75,75 -41,0 -75,-33 -75,-75 0,-41 34,-75 75,-75z"/>
   <path class="fil0" d="M4464 3607c124,0 225,-101 225,-226 0,-124 -101,-225 -225,-225 -124,0 -225,101 -225,225 0,125 101,226 225,226zm0 -301c41,0 75,34 75,75 0,42 -34,75 -75,75 -41,0 -75,-33 -75,-75 0,-41 34,-75 75,-75z"/>
   <path class="fil0" d="M3896 3977c124,0 225,-101 225,-225 0,-124 -101,-225 -225,-225 -124,0 -225,101 -225,225 0,124 101,225 225,225zm0 -300c41,0 75,33 75,75 0,41 -34,75 -75,75 -41,0 -75,-34 -75,-75 0,-42 34,-75 75,-75z"/>
   <path class="fil0" d="M4689 4002c0,-124 -101,-225 -225,-225 -124,0 -225,101 -225,225 0,124 101,225 225,225 124,0 225,-101 225,-225zm-300 0c0,-41 34,-75 75,-75 41,0 75,34 75,75 0,41 -34,75 -75,75 -41,0 -75,-34 -75,-75z"/>
   <polygon class="fil0" points="2984,3567 3285,3567 3285,3717 2984,3717 "/>
   <polygon class="fil0" points="636,636 788,636 788,786 636,786 "/>
   <polygon class="fil0" points="2277,1603 2383,1497 2489,1603 2383,1709 "/>
   <polygon class="fil0" points="1655,2224 2170,1709 2277,1815 1761,2331 "/>
   <polygon class="fil0" points="2256,2074 2983,1347 3089,1453 2362,2180 "/>
   <polygon class="fil0" points="938,636 1089,636 1089,786 938,786 "/>
   <polygon class="fil0" points="1766,4710 1916,4710 1916,4860 1766,4860 "/>
   <polygon class="fil0" points="2067,4710 2217,4710 2217,4860 2067,4860 "/>
   <polygon class="fil0" points="4352,4710 4503,4710 4503,4860 4352,4860 "/>
   <polygon class="fil0" points="4052,4710 4202,4710 4202,4860 4052,4860 "/>
  </g>
 </g>
</svg>
