<?xml version="1.0" encoding="UTF-8"?>
<!DOCTYPE svg PUBLIC "-//W3C//DTD SVG 1.1//EN" "http://www.w3.org/Graphics/SVG/1.1/DTD/svg11.dtd">
<!-- Creator: CorelDRAW X7 -->
<svg xmlns="http://www.w3.org/2000/svg" xml:space="preserve" width="5.25in" height="5.2in" version="1.1" style="shape-rendering:geometricPrecision; text-rendering:geometricPrecision; image-rendering:optimizeQuality; fill-rule:evenodd; clip-rule:evenodd"
viewBox="0 0 5250 5200"
 xmlns:xlink="http://www.w3.org/1999/xlink">
 <defs>
  <style type="text/css">
   <![CDATA[
    .fil0 {fill:#A734FD}
    .fil2 {fill:#B4B4B4}
    .fil1 {fill:#FEFEFE}
   ]]>
  </style>
 </defs>
 <g id="Layer_x0020_1">
  <metadata id="CorelCorpID_0Corel-Layer"/>
  <g id="_2958142912880">
   <path class="fil0" d="M4055 1738c-71,-114 -618,-627 -691,-799 -101,-237 63,-466 248,-498 301,-51 320,207 470,190 120,-15 178,-273 475,-181 168,52 308,272 207,504 -35,81 -669,760 -709,784zm12 -1352c0,0 0,0 0,0z"/>
   <path class="fil0" d="M2316 77c-27,26 -1016,466 -1195,550 -211,99 -220,64 -287,300 -71,249 -699,2448 -730,2778 -24,254 3,335 181,410 76,31 136,48 198,91 321,222 495,390 881,582 297,147 564,228 934,242 372,15 721,-21 1075,-91 80,-16 163,-52 228,-21 68,32 138,60 211,88 291,110 695,172 1009,149 88,-6 189,-1 187,-98 -4,-193 -423,79 -1212,-240 -261,-106 -141,-106 -435,-48 -520,101 -1078,148 -1583,6 -583,-164 -1049,-650 -1290,-761 -57,-26 -164,-57 -209,-89 -57,-210 170,-959 231,-1187l503 -1827c18,-65 33,-63 90,-88 83,-37 168,-76 249,-114 166,-79 328,-155 491,-226l490 -222 256 329c46,58 83,110 130,168 89,111 30,127 -20,188l-211 237c-29,27 -39,53 -68,81 -113,107 -99,211 -337,-38 -26,-27 -48,-43 -95,-30 -60,16 -36,38 -85,64 -60,31 -185,43 -258,40 -118,-5 -142,73 -80,155 19,25 53,58 62,89l76 1266c7,123 9,132 -28,245 -55,165 -92,143 -118,180 -76,108 153,301 288,-159 17,-58 11,-71 51,-98 65,-44 114,-71 190,-109 303,-153 665,-126 955,46 342,203 358,484 384,512 98,104 265,-65 -9,-402 -22,-26 -56,-61 -66,-84 23,-47 170,-186 218,-221 319,-233 625,-284 1008,-129 223,90 374,269 426,136 27,-71 -29,-107 -71,-136 -245,-167 -356,-183 -620,-247 -359,-26 -635,47 -894,281 -132,119 -81,67 -197,202 -155,-61 -276,-204 -652,-224 -315,-16 -455,64 -696,185l-80 -1306 -9 -22 22 -1c110,-15 131,-39 216,-68 40,54 133,145 233,156 147,17 243,-114 351,-237l92 -105c30,-40 59,-63 91,-105 18,-24 30,-28 50,-51 191,-215 61,-326 -39,-464l-345 -448c-41,-52 -58,-79 -138,-60z"/>
   <path class="fil1" d="M4058 1524c28,-17 494,-503 518,-559 70,-157 -27,-306 -143,-342 -207,-62 -273,163 -356,172 -104,12 -143,-212 -351,-177 -128,21 -242,177 -172,338 51,117 455,490 504,568z"/>
   <path class="fil0" d="M1162 3807c-147,82 182,364 255,425l143 108c213,141 495,233 760,255 127,10 521,-1 616,-55 72,-41 66,-173 -93,-149 -345,53 -543,68 -889,-44 -170,-54 -322,-154 -429,-242 -80,-65 -104,-86 -169,-166 -17,-21 -22,-24 -38,-46 -50,-68 -77,-130 -156,-86z"/>
   <path class="fil0" d="M4379 3891c-115,60 -8,222 155,300 64,30 357,134 428,100 68,-32 64,-135 -17,-157 -137,-39 -277,-43 -408,-142 -50,-37 -52,-156 -158,-101z"/>
   <path class="fil2" d="M1792 1482c9,-17 0,-10 13,-23l-22 1 9 22z"/>
  </g>
 </g>
</svg>
