<?xml version="1.0" encoding="UTF-8"?>
<!DOCTYPE svg PUBLIC "-//W3C//DTD SVG 1.1//EN" "http://www.w3.org/Graphics/SVG/1.1/DTD/svg11.dtd">
<!-- Creator: CorelDRAW X7 -->
<svg xmlns="http://www.w3.org/2000/svg" xml:space="preserve" width="5.25in" height="5.2in" version="1.1" style="shape-rendering:geometricPrecision; text-rendering:geometricPrecision; image-rendering:optimizeQuality; fill-rule:evenodd; clip-rule:evenodd"
viewBox="0 0 5250 5200"
 xmlns:xlink="http://www.w3.org/1999/xlink">
 <defs>
  <style type="text/css">
   <![CDATA[
    .fil2 {fill:#8E8E8E}
    .fil0 {fill:#A734FD}
    .fil1 {fill:white}
   ]]>
  </style>
 </defs>
 <g id="Layer_x0020_1">
  <metadata id="CorelCorpID_0Corel-Layer"/>
  <g id="_2958408849792">
   <path class="fil0" d="M25 2600l0 1880c23,40 24,65 80,76l478 3c152,0 367,16 437,-197 163,20 275,64 393,135 354,213 677,458 1099,467 363,8 538,-98 825,-221 545,-235 1090,-485 1636,-722 403,-174 310,-669 -29,-750 -156,-38 -291,31 -424,75l-773 264c1,-76 10,-123 -17,-197 -41,-117 -107,-189 -212,-239 -65,-31 -108,-39 -186,-40 -76,-1 -630,6 -673,-5 -35,-9 -390,-214 -434,-240 -93,-53 -191,-114 -309,-142 -178,-44 -841,-9 -881,-21 -24,-15 -23,-31 -34,-52 -9,-16 -23,-35 -31,-45 -89,-115 -241,-106 -379,-106 -107,0 -214,0 -321,0 -178,0 -182,-21 -245,77z"/>
   <path class="fil1" d="M1043 4133l2 27c348,52 422,133 703,301 210,126 410,271 713,297 333,30 541,-92 801,-205l1574 -693c76,-34 110,-41 158,-95 78,-87 44,-288 -131,-301 -88,-7 -306,86 -393,114l-752 260c-150,50 -263,109 -394,109l-995 0c-82,0 -145,-50 -115,-136 28,-80 107,-67 199,-67 179,0 357,0 536,0 126,0 417,26 505,-33 50,-33 95,-92 93,-176 -5,-267 -381,-198 -613,-198 -216,0 -291,26 -462,-75 -113,-66 -226,-128 -344,-192 -129,-70 -220,-141 -404,-141l-677 0 -4 1204z"/>
   <path class="fil0" d="M3056 2516l-567 -481c-125,-102 -370,-327 -457,-446 -20,-26 -48,-63 -94,-67 -66,-4 -161,63 -74,182 90,121 294,321 408,412l701 599c110,90 158,9 294,-110l133 -111c111,-90 290,-259 394,-341l403 -409c44,-51 95,-123 136,-193 86,-147 144,-317 134,-519 -34,-638 -654,-930 -1095,-686 -121,67 -278,216 -324,336 -20,-23 -71,-108 -130,-178 -35,-41 -111,-105 -171,-142 -300,-182 -713,-100 -911,139 -61,73 -246,322 -153,420 48,51 137,57 176,-60 136,-412 645,-561 948,-169 163,211 130,389 270,339 76,-27 87,-162 171,-290 18,-28 48,-72 68,-93 198,-210 470,-249 721,-69 26,19 18,14 40,37 44,48 15,2 74,87 93,131 136,316 102,499 -58,315 -376,601 -603,807l-126 111c-17,15 -27,19 -43,34l-126 111c-19,16 -21,14 -42,35 -16,16 -25,19 -42,34 -24,22 -22,21 -46,39l-123 106c-25,23 -19,22 -46,37z"/>
   <path class="fil1" d="M232 4354c92,2 507,17 558,-14 69,-41 50,-145 50,-238l0 -1148c0,-91 13,-205 -76,-220 -108,-21 -404,-6 -532,-6l0 1626z"/>
   <path class="fil0" d="M1706 1166c-113,44 -53,244 79,187 112,-48 58,-239 -79,-187z"/>
   <path class="fil0" d="M501 2937c-133,47 -53,238 70,189 105,-41 64,-237 -70,-189z"/>
   <path class="fil2" d="M232 4354l0 -1626c128,0 424,-15 532,6 -10,-22 -503,-15 -540,-9l0 1607c3,25 -2,10 8,22z"/>
  </g>
 </g>
</svg>
