<?xml version="1.0" encoding="UTF-8"?>
<!DOCTYPE svg PUBLIC "-//W3C//DTD SVG 1.1//EN" "http://www.w3.org/Graphics/SVG/1.1/DTD/svg11.dtd">
<!-- Creator: CorelDRAW X7 -->
<svg xmlns="http://www.w3.org/2000/svg" xml:space="preserve" width="5.2in" height="5.2in" version="1.1" style="shape-rendering:geometricPrecision; text-rendering:geometricPrecision; image-rendering:optimizeQuality; fill-rule:evenodd; clip-rule:evenodd"
viewBox="0 0 5200 5200"
 xmlns:xlink="http://www.w3.org/1999/xlink"
 enable-background="new 0 0 512 512">
 <defs>
  <style type="text/css">
   <![CDATA[
    .fil0 {fill:#A734FD}
   ]]>
  </style>
 </defs>
 <g id="Layer_x0020_1">
  <metadata id="CorelCorpID_0Corel-Layer"/>
  <g id="_1984969070672">
   <path class="fil0" d="M4742 1562c-42,0 -77,38 -77,85l0 548c0,47 35,85 77,85 42,0 76,-38 76,-85l0 -548c0,-47 -34,-85 -76,-85z"/>
   <path class="fil0" d="M2484 3672l-2205 0c-70,0 -127,-63 -127,-141l0 -2251c0,-47 -34,-85 -76,-85 -42,0 -76,38 -76,85l0 2251c0,171 125,311 279,311l2205 0c42,0 76,-38 76,-85 0,-47 -34,-85 -76,-85z"/>
   <path class="fil0" d="M76 984c42,0 76,-38 76,-84l0 -589c0,-78 57,-141 127,-141l2479 0c42,0 76,-38 76,-85 0,-47 -34,-85 -76,-85l-2479 0c-154,0 -279,140 -279,311l0 589c0,46 34,84 76,84z"/>
   <path class="fil0" d="M4921 0l-1800 0c-42,0 -76,38 -76,85 0,47 34,85 76,85l1162 0 0 2665c-41,7 -79,26 -109,56 -39,-38 -89,-59 -143,-59l-74 0c-23,0 -46,4 -67,11l0 -635c0,-135 -99,-246 -220,-246l-77 0c-94,0 -174,68 -203,163l-809 0c-42,0 -76,38 -76,85 0,47 34,85 76,85l797 0 0 278 -797 0c-42,0 -76,38 -76,85 0,47 34,85 76,85l797 0 -1 279 -796 0c-42,0 -76,38 -76,85 0,47 34,85 76,85l796 0 0 403c0,0 -74,-117 -75,-118 -121,-173 -346,-204 -501,-68 -1,0 -1,1 -1,1 -72,64 -86,169 -34,243l388 554c11,15 17,35 17,55 2,209 128,386 305,429l52 13c4,1 6,5 6,9l0 323c0,90 66,164 147,164l1005 0c81,0 147,-74 147,-164l0 -556c0,-5 2,-9 4,-11 83,-69 132,-178 132,-293l0 -339c131,-25 231,-153 231,-306l0 -3220c0,-171 -125,-311 -279,-311l0 0zm-175 4332c-41,34 -65,89 -65,148l0 550 -995 0 0 -317c0,-84 -51,-156 -125,-174l-52 -13c-108,-27 -184,-136 -185,-266 -1,-57 -19,-113 -50,-158l-386 -551c1,-2 3,-5 7,-9 43,-37 97,-54 151,-46 54,7 102,37 135,84l181 287c18,28 46,44 75,44 51,0 92,-46 92,-102l1 -1606c0,-39 29,-71 63,-71l77 0c37,0 68,34 68,76l0 868c0,47 34,85 76,85 42,0 76,-38 76,-85 0,-41 30,-75 67,-75l74 0c29,0 54,21 63,52 12,38 43,64 80,64l0 0c36,0 68,-25 79,-64 9,-31 35,-52 64,-52l73 0c37,0 67,34 67,75l0 56c0,44 27,81 65,91 38,10 76,-11 93,-50l1 -2c17,-39 23,-52 62,-53l72 0c37,0 67,33 67,74l0 984c0,62 -26,119 -71,156zm302 -801c0,59 -33,109 -79,131l0 -470c0,-134 -98,-244 -219,-244l-74 0c0,0 -1,0 -2,0 -35,1 -63,9 -87,20 -29,-66 -85,-116 -152,-131l0 -2667 486 0c70,0 127,63 127,141l0 3220z"/>
   <path class="fil0" d="M545 762c-31,11 -53,43 -53,81l0 755c0,47 34,85 76,85 42,0 76,-38 76,-85l0 -483 319 515c23,37 60,53 96,40 37,-13 60,-51 60,-98l-6 -732c0,-46 -34,-84 -76,-84 0,0 -1,0 -1,0 -42,1 -76,39 -75,86l4 493 -334 -541c-19,-30 -54,-43 -86,-32z"/>
   <path class="fil0" d="M1873 933c42,0 76,-38 76,-85 0,-47 -34,-85 -76,-85l-283 0c-42,0 -76,38 -76,85l0 750c0,47 34,85 76,85l283 0c42,0 76,-38 76,-85 0,-47 -34,-85 -76,-85l-207 0 0 -205 186 0c42,0 76,-38 76,-85 0,-47 -34,-85 -76,-85l-186 0 0 -205 207 0 0 0z"/>
   <path class="fil0" d="M3720 1516c-70,0 -137,-31 -180,-84 -28,-35 -76,-37 -107,-6 -31,32 -34,85 -6,120 72,88 181,140 293,140 139,0 255,-98 277,-234 16,-101 -26,-234 -192,-303 -84,-35 -163,-73 -186,-84 -16,-14 -23,-35 -20,-59 1,-15 11,-52 60,-68 100,-34 192,48 194,50 32,30 80,25 107,-11 27,-36 23,-89 -9,-120 -7,-5 -156,-143 -336,-82 -91,31 -155,110 -167,207 -12,91 24,179 92,229 4,2 7,4 11,6 4,2 97,48 202,92 31,13 104,50 94,113 -7,47 -57,94 -127,94l0 0z"/>
   <path class="fil0" d="M2661 763c-28,10 -47,35 -52,65l-134 479 -84 -479c-9,-46 -49,-76 -90,-67 -41,9 -68,54 -60,100l132 745c17,100 152,106 177,9l133 -482 133 482c25,98 160,91 176,-9l133 -743c8,-46 -19,-91 -60,-100 -41,-9 -81,20 -89,66l-85 478 -135 -487c-13,-45 -55,-70 -95,-57l0 0z"/>
   <path class="fil0" d="M1985 2125l-1417 0c-42,0 -76,38 -76,85 0,47 34,85 76,85l1417 0c42,0 76,-38 76,-85 0,-47 -34,-85 -76,-85z"/>
   <path class="fil0" d="M1985 2573l-1417 0c-42,0 -76,38 -76,85 0,47 34,85 76,85l1417 0c42,0 76,-38 76,-85 0,-47 -34,-85 -76,-85z"/>
   <path class="fil0" d="M1985 3022l-1417 0c-42,0 -76,38 -76,85 0,47 34,85 76,85l1417 0c42,0 76,-38 76,-85 0,-47 -34,-85 -76,-85l0 0z"/>
  </g>
 </g>
</svg>
