<?xml version="1.0"?>
<svg xmlns="http://www.w3.org/2000/svg" viewBox="0 0 64 64" width="512" height="512"><g id="Layer_12" data-name="Layer 12"><path d="M58,7H42.94A13,13,0,0,0,21.06,7H6a5,5,0,0,0-5,5V44a5,5,0,0,0,5,5H24v6H23a5,5,0,0,0-5,5v2a1,1,0,0,0,1,1H45a1,1,0,0,0,1-1V60a5,5,0,0,0-5-5H40V49H58a5,5,0,0,0,5-5V12A5,5,0,0,0,58,7ZM26.05,15A17.9,17.9,0,0,0,27,19.83a11,11,0,0,0-2.93,1.77,11,11,0,0,1-3-6.6ZM43,15a11,11,0,0,1-3,6.6A11,11,0,0,0,37,19.83,17.76,17.76,0,0,0,38,15ZM33,21a9.39,9.39,0,0,1,1.3.13A17.21,17.21,0,0,1,33,23.26Zm-2,2.26a15.55,15.55,0,0,1-1.3-2.13A9.39,9.39,0,0,1,31,21Zm-1.4,1.46a11,11,0,0,1-4-1.8,9.28,9.28,0,0,1,2.15-1.25A18,18,0,0,0,29.6,24.73Zm6.65-3.05a9.43,9.43,0,0,1,2.15,1.25,11,11,0,0,1-4,1.8A17.92,17.92,0,0,0,36.25,21.68ZM35.1,19.25A11.36,11.36,0,0,0,33,19V15h3A16,16,0,0,1,35.1,19.25ZM33,13V9a11.36,11.36,0,0,0,2.1-.24A16,16,0,0,1,36,13Zm0-6V4.73a15.55,15.55,0,0,1,1.3,2.13A9.39,9.39,0,0,1,33,7Zm1.41-3.72a11,11,0,0,1,4,1.8,9.43,9.43,0,0,1-2.15,1.25A17.92,17.92,0,0,0,34.41,3.27ZM31,4.73V7a9.39,9.39,0,0,1-1.3-.13A15.55,15.55,0,0,1,31,4.73ZM27.75,6.32A9.43,9.43,0,0,1,25.6,5.07a11,11,0,0,1,4-1.8A17.92,17.92,0,0,0,27.75,6.32ZM31,9v4H28.05a16,16,0,0,1,.85-4.25A11.36,11.36,0,0,0,31,9Zm0,6v4a11.36,11.36,0,0,0-2.1.24A16,16,0,0,1,28.05,15Zm1,12A13,13,0,0,0,45,14c0-.34,0-.67,0-1H57V43H7V13H19.05c0,.33-.05.66-.05,1A13,13,0,0,0,32,27ZM43,13H38A17.76,17.76,0,0,0,37,8.17,11,11,0,0,0,39.94,6.4,11,11,0,0,1,43,13ZM24.06,6.4A11,11,0,0,0,27,8.17,17.76,17.76,0,0,0,26.05,13h-5A11,11,0,0,1,24.06,6.4ZM44,60v1H20V60a3,3,0,0,1,3-3H41A3,3,0,0,1,44,60Zm-6-5H26V49H38ZM61,44a3,3,0,0,1-3,3H6a3,3,0,0,1-3-3V12A3,3,0,0,1,6,9H20a13.32,13.32,0,0,0-.64,2H6a1,1,0,0,0-1,1V44a1,1,0,0,0,1,1H58a1,1,0,0,0,1-1V12a1,1,0,0,0-1-1H44.64A13.32,13.32,0,0,0,44,9H58a3,3,0,0,1,3,3Z"/><path d="M16.72,29A1,1,0,0,0,16,30v9h2V33.49l3.15,5A1,1,0,0,0,22,39a1,1,0,0,0,.28,0A1,1,0,0,0,23,38V29H21v5.51l-3.15-5A1,1,0,0,0,16.72,29Z"/><path d="M26,39h4V37H27V35h3V33H27V31h3V29H26a1,1,0,0,0-1,1v8A1,1,0,0,0,26,39Z"/><path d="M32.68,39a1,1,0,0,0,1.12-.35L36,35.67l2.2,2.93a1,1,0,0,0,.8.4,1.19,1.19,0,0,0,.32,0A1,1,0,0,0,40,38V29H38v6l-1.2-1.6a1,1,0,0,0-1.6,0L34,35V29H32v9A1,1,0,0,0,32.68,39Z"/><path d="M48,36a3,3,0,0,0-3-3,1,1,0,0,1,0-2h3V29H45a3,3,0,0,0,0,6,1,1,0,0,1,0,2H42v2h3A3,3,0,0,0,48,36Z"/></g></svg>
