<?xml version="1.0" encoding="UTF-8"?>
<!DOCTYPE svg PUBLIC "-//W3C//DTD SVG 1.1//EN" "http://www.w3.org/Graphics/SVG/1.1/DTD/svg11.dtd">
<!-- Creator: CorelDRAW X7 -->
<svg xmlns="http://www.w3.org/2000/svg" xml:space="preserve" width="5.25in" height="5.2in" version="1.1" style="shape-rendering:geometricPrecision; text-rendering:geometricPrecision; image-rendering:optimizeQuality; fill-rule:evenodd; clip-rule:evenodd"
viewBox="0 0 5250 5200"
 xmlns:xlink="http://www.w3.org/1999/xlink">
 <defs>
  <style type="text/css">
   <![CDATA[
    .fil1 {fill:#A734FD}
    .fil0 {fill:white}
    .fil2 {fill:white}
   ]]>
  </style>
 </defs>
 <g id="Layer_x0020_1">
  <metadata id="CorelCorpID_0Corel-Layer"/>
  <polygon class="fil0" points="6090,6017 13021,6017 13021,-817 6090,-817 "/>
  <g id="_2958297067376">
   <path class="fil1" d="M2479 32c-222,37 -331,78 -510,171 -44,22 -61,36 -106,66 -15,10 -37,23 -49,32l-139 124c-152,134 -258,338 -333,530 -134,343 -79,808 105,1122 45,78 88,138 140,203 28,35 48,63 79,94 131,130 360,271 532,329 467,157 951,62 1326,-244 507,-414 655,-1173 320,-1734 -48,-82 -89,-138 -139,-206l-173 -172c-146,-108 -242,-182 -439,-250 -169,-59 -425,-96 -614,-65z"/>
   <path class="fil1" d="M3932 4564c30,-14 72,-51 98,-72 37,-31 67,-53 102,-81 147,-116 687,-578 721,-715 42,-177 190,-791 172,-900 -34,-209 -65,-417 -97,-627 -37,-240 -29,-414 -195,-529 -190,-132 -417,-18 -491,135 -74,153 -21,673 -34,862 -5,66 -33,63 -75,109 -55,60 -104,129 -160,196l-159 197c-50,47 -113,4 -298,69 -325,116 -602,386 -674,774 -23,121 -20,865 -14,1068 5,150 116,119 253,119 238,0 489,8 725,1 154,-5 126,-99 126,-236 0,-124 0,-247 0,-370z"/>
   <path class="fil1" d="M1358 4564c0,115 0,231 0,347 0,335 -26,258 793,258 382,0 310,-2 310,-385 0,-228 9,-475 -2,-701 -19,-405 -307,-696 -563,-824 -232,-117 -360,-77 -408,-110l-160 -196c-66,-82 -176,-221 -246,-279 0,-244 10,-508 0,-751 -15,-359 -453,-456 -626,-178 -53,85 -59,197 -76,304 -34,215 -67,431 -100,647 -24,159 -31,155 5,313l136 611c38,170 43,146 138,241l375 371c48,36 383,313 424,332z"/>
   <path class="fil0" d="M2030 910c21,100 97,203 35,284 -19,26 -161,167 -185,183 -106,70 -172,-58 -217,-114 -49,-60 -112,-151 -167,-204 -27,204 -71,332 -26,559 223,1116 1658,1293 2189,412 103,-171 59,-122 -42,-457 -134,172 -209,78 -366,-26 -65,-43 -126,-64 -149,-149 -23,-82 -41,-167 -62,-248 -32,-127 -42,-113 16,-228 39,-77 52,-167 151,-162 57,3 172,58 231,73 44,12 55,-5 99,-28 36,-18 73,-32 105,-53 -68,-157 -216,-58 -527,-87 -100,-9 -110,-82 -151,-163 -62,-122 -34,-123 -46,-265 -112,-21 -182,-29 -302,-31 21,62 117,223 118,271 3,102 -138,118 -228,147 -234,75 70,205 -476,286z"/>
   <path class="fil0" d="M1548 4986l729 0 0 -810c0,-127 -15,-213 -57,-322 -37,-96 -88,-165 -156,-235 -138,-141 -283,-253 -510,-272 -192,-17 -160,-20 -254,-136 -63,-79 -113,-139 -175,-215 -41,-50 -129,-175 -189,-202 -119,-52 -225,37 -229,141 -7,199 492,719 266,776 -107,27 -144,-123 -185,-195 -54,-95 -248,-428 -261,-520 -33,-236 139,-397 366,-400 13,-58 13,-609 4,-681 -12,-97 -93,-168 -201,-137 -99,28 -107,116 -124,232 -23,149 -144,800 -117,920l127 574c36,168 25,133 118,227 383,390 332,350 735,666 103,80 108,69 107,238 0,83 -10,281 6,351z"/>
   <path class="fil0" d="M4397 2596c243,3 391,177 367,390 -11,98 -204,427 -258,523 -40,70 -79,220 -180,204 -244,-38 252,-576 257,-768 2,-106 -100,-201 -220,-154 -60,22 -151,147 -192,200 -59,77 -114,140 -176,214 -83,100 -71,129 -247,141 -259,18 -466,176 -605,374 -95,135 -130,284 -130,456l4 810 725 0c15,-69 6,-258 6,-339 -1,-213 -1,-166 292,-398 275,-217 294,-257 544,-512 92,-93 86,-58 121,-223l127 -575c31,-130 -88,-760 -112,-919 -17,-110 -20,-199 -109,-236 -111,-46 -201,25 -217,121 -9,57 -8,640 3,691z"/>
   <path class="fil1" d="M2427 1309c-273,0 -262,-26 -388,101 -34,34 -122,105 -128,160 -7,70 67,140 75,196 7,42 -46,166 -62,218 -39,130 62,163 239,295 34,25 139,111 167,121 73,28 143,-38 202,-72 60,-37 109,-66 172,-104 250,-149 202,-104 377,-473 41,-87 29,-139 -59,-170 -291,-101 -133,-13 -395,-179 -63,-40 -104,-93 -200,-93z"/>
   <path class="fil0" d="M2118 1602c23,63 77,121 60,199 -13,57 -47,154 -67,208 82,71 180,136 261,199 102,-57 204,-120 307,-181 151,-89 88,-108 201,-294 -50,-32 -145,-46 -198,-75 -253,-140 -149,-165 -394,-166 -75,0 -95,22 -170,110z"/>
   <path class="fil0" d="M1579 864l232 285c12,12 9,9 18,16l64 -68c-101,-341 -139,-307 183,-386 173,-42 126,-8 198,-157 29,-59 32,-59 103,-81 49,-15 92,-30 137,-47 -31,-64 -68,-144 -101,-198 -394,109 -645,279 -834,636z"/>
   <path class="fil2" d="M3245 963c-64,100 -29,129 12,303 20,85 17,76 80,116 40,26 81,62 124,77 44,-46 142,-185 242,-136 42,21 110,231 120,287 32,-305 9,-416 -78,-682 -93,3 -156,70 -233,95 -67,21 -204,-40 -267,-60z"/>
   <path class="fil0" d="M3173 482l220 -1c-2,-3 -4,-10 -6,-8l-58 -50c-26,-18 -45,-30 -69,-45 -49,-31 -95,-58 -156,-77 0,68 24,140 69,181z"/>
  </g>
 </g>
</svg>
