<?xml version="1.0" encoding="UTF-8"?>
<!DOCTYPE svg PUBLIC "-//W3C//DTD SVG 1.1//EN" "http://www.w3.org/Graphics/SVG/1.1/DTD/svg11.dtd">
<!-- Creator: CorelDRAW X7 -->
<svg xmlns="http://www.w3.org/2000/svg" xml:space="preserve" width="5.25in" height="5.2in" version="1.1" style="shape-rendering:geometricPrecision; text-rendering:geometricPrecision; image-rendering:optimizeQuality; fill-rule:evenodd; clip-rule:evenodd"
viewBox="0 0 5250 5200"
 xmlns:xlink="http://www.w3.org/1999/xlink">
 <defs>
  <style type="text/css">
   <![CDATA[
    .fil0 {fill:#A734FD}
    .fil1 {fill:#FDFDFD}
   ]]>
  </style>
 </defs>
 <g id="Layer_x0020_1">
  <metadata id="CorelCorpID_0Corel-Layer"/>
  <g id="_2958297038224">
   <path class="fil0" d="M5127 5164c37,-11 44,-17 54,-55 8,-33 1,-67 -14,-86 -32,-40 -111,-30 -173,-30 -137,0 -273,0 -410,0l0 -2635c0,-281 45,-284 -241,-284 -172,0 -946,9 -1047,-2l0 -1839c0,-180 16,-138 -43,-213 -92,-21 -349,-9 -463,-9 -229,0 -1786,-8 -1832,4 -70,19 -65,86 -65,163l0 4815c-180,0 -361,0 -541,0 -158,0 -324,-36 -316,94 0,55 27,59 58,81 506,0 4813,-2 5033,-4z"/>
   <path class="fil1" d="M1065 4993l257 -2c0,-216 0,-433 0,-649 0,-178 14,-378 277,-378 144,0 266,-17 357,100 57,73 52,168 52,278 0,216 0,433 0,649l173 2 0 -2807c0,-78 28,-112 108,-112l839 0 -2 -1886 -2061 -2 0 4807z"/>
   <polygon class="fil1" points="2353,4991 2383,4993 4421,4993 4414,2246 2353,2246 "/>
   <path class="fil0" d="M1394 2935c-101,20 -72,163 -72,270 0,81 -10,277 3,344 18,100 168,72 274,72 445,0 410,50 410,-275 0,-450 51,-413 -277,-413 -74,0 -280,-10 -338,2z"/>
   <path class="fil0" d="M1394 1218c-101,20 -72,163 -72,270 0,450 -53,415 277,415 445,0 410,51 410,-274 0,-450 51,-414 -277,-414 -74,0 -280,-9 -338,3z"/>
   <path class="fil0" d="M1377 363c-86,30 -55,200 -55,286 0,445 -45,396 292,396 441,0 395,43 395,-294 0,-57 6,-306 -7,-341 -29,-78 -169,-53 -286,-53 -60,0 -301,-7 -339,6z"/>
   <path class="fil0" d="M1377 2080c-86,30 -55,200 -55,286 0,445 -45,396 292,396 441,0 395,43 395,-294 0,-57 6,-306 -7,-341 -29,-77 -169,-53 -286,-53 -60,0 -301,-7 -339,6z"/>
   <path class="fil0" d="M2672 3280c-91,27 -62,187 -62,286 0,56 -6,306 5,340 29,84 195,58 285,58 440,0 397,45 397,-288 0,-63 8,-294 -5,-338 -24,-86 -158,-62 -282,-62 -60,0 -301,-7 -338,4z"/>
   <path class="fil0" d="M3518 4143c-77,36 -49,200 -49,293 0,428 -48,386 302,386 428,0 385,45 385,-300 0,-59 7,-301 -9,-337 -35,-79 -200,-51 -290,-51 -64,0 -298,-10 -339,9z"/>
   <path class="fil0" d="M2255 1217c-101,16 -74,142 -74,271 0,449 -54,415 272,415 447,0 415,53 415,-274 0,-233 48,-411 -101,-414l-512 2z"/>
   <path class="fil0" d="M3528 3281c-83,27 -59,160 -59,285 0,446 -46,398 294,398 270,0 392,41 393,-116 0,-57 0,-115 0,-172 0,-445 46,-400 -291,-400 -60,0 -299,-7 -337,5z"/>
   <path class="fil0" d="M3518 2426c-77,35 -49,200 -49,293 0,428 -48,386 302,386 428,0 385,45 385,-300 0,-434 44,-388 -299,-388 -64,0 -298,-10 -339,9z"/>
   <path class="fil0" d="M2234 364c-76,33 -53,153 -53,285 0,441 -49,396 296,396 436,0 391,44 391,-294 0,-441 46,-394 -297,-394 -62,0 -298,-9 -337,7z"/>
   <path class="fil0" d="M2610 4240l0 478c0,75 35,104 110,104l470 0c77,0 107,-38 107,-111l0 -463c0,-79 -25,-114 -107,-114l-470 0c-75,0 -110,31 -110,106z"/>
   <path class="fil0" d="M2610 2523l0 478c0,74 35,104 110,104l470 0c77,0 107,-38 107,-112l0 -462c0,-79 -25,-114 -107,-114l-470 0c-75,0 -110,31 -110,106z"/>
   <path class="fil1" d="M1495 4993l344 0c-1,-180 7,-605 -1,-761 -5,-98 -77,-98 -169,-98 -217,0 -174,35 -174,341 0,173 0,345 0,518z"/>
   <polygon class="fil1" points="1494,872 1838,872 1837,529 1493,529 "/>
   <polygon class="fil1" points="2352,871 2383,873 2665,872 2696,872 2696,530 2352,529 "/>
   <polygon class="fil1" points="2782,3762 2783,3791 3124,3791 3125,3451 3096,3448 2782,3448 "/>
   <polygon class="fil1" points="1494,2590 1837,2590 1837,2246 1495,2246 "/>
   <polygon class="fil1" points="1494,1731 1838,1731 1837,1388 1496,1388 "/>
   <polygon class="fil1" points="3641,3789 3982,3791 3984,3762 3984,3448 3640,3449 "/>
   <polygon class="fil1" points="1494,3448 1837,3448 1837,3105 1497,3105 "/>
   <polygon class="fil1" points="2352,1730 2696,1731 2696,1388 2354,1388 "/>
   <path class="fil1" d="M3640 4646l344 4c0,-68 8,-294 -5,-343l-336 0 -3 339z"/>
   <path class="fil1" d="M3640 2929l344 4c0,-68 8,-294 -5,-343l-336 0 -3 339z"/>
   <polygon class="fil1" points="2782,2933 3125,2932 3125,2591 2786,2589 "/>
   <polygon class="fil1" points="2782,4650 3125,4650 3125,4308 2786,4307 "/>
  </g>
 </g>
</svg>
