<?xml version="1.0" encoding="UTF-8"?>
<!DOCTYPE svg PUBLIC "-//W3C//DTD SVG 1.1//EN" "http://www.w3.org/Graphics/SVG/1.1/DTD/svg11.dtd">
<!-- Creator: CorelDRAW X7 -->
<svg xmlns="http://www.w3.org/2000/svg" xml:space="preserve" width="5.25in" height="5.2in" version="1.1" style="shape-rendering:geometricPrecision; text-rendering:geometricPrecision; image-rendering:optimizeQuality; fill-rule:evenodd; clip-rule:evenodd"
viewBox="0 0 5250 5200"
 xmlns:xlink="http://www.w3.org/1999/xlink">
 <defs>
  <style type="text/css">
   <![CDATA[
    .fil0 {fill:#A734FD}
    .fil1 {fill:white}
   ]]>
  </style>
 </defs>
 <g id="Layer_x0020_1">
  <metadata id="CorelCorpID_0Corel-Layer"/>
  <g id="_2958141097088">
   <path class="fil0" d="M32 1793l0 223c50,142 2,438 287,890 29,46 51,76 80,116 76,101 189,230 286,304 94,74 93,87 224,169 153,97 355,190 553,233 472,102 924,48 1309,-158 268,-142 465,-317 637,-543 487,-640 496,-1533 12,-2219 -28,-39 -60,-74 -87,-110 -26,-36 -161,-181 -200,-194 -61,-20 -108,27 -93,91 12,54 152,140 187,209 17,33 -150,503 -177,587 -28,88 -9,72 -95,102 -99,36 -191,69 -288,106 -96,35 -52,46 -240,-93 -37,-27 -439,-300 -448,-340l0 -442c8,-36 436,-332 492,-374 71,-52 68,-57 241,34 28,14 84,52 115,63 60,23 295,-62 -198,-265 -201,-82 -325,-104 -551,-139 -457,-37 -885,91 -1204,303 -44,28 -74,50 -115,82 -142,115 -166,138 -285,275 -37,42 -54,67 -83,105 -28,37 -52,70 -75,111 -27,49 -14,101 35,116 63,18 81,-30 94,-46 19,-23 3,-8 22,-23l175 536 -458 329c2,-123 22,-250 53,-361 23,-82 127,-286 1,-295 -70,-5 -77,50 -99,108 -89,244 -91,466 -107,510z"/>
   <path class="fil1" d="M1473 3580c323,62 514,79 839,5 21,-70 65,-256 118,-278 58,-25 107,15 99,79 -4,26 -35,119 -45,147 184,-71 380,-171 517,-293 58,-52 212,-175 248,-257l-572 -2c-30,7 -33,77 -53,118 -24,50 -66,48 -118,36 -36,-71 -20,-87 7,-167 32,-95 7,-89 -132,-267 -55,-70 -77,-124 -126,-124l-718 0c-19,10 -11,6 -25,19 -1,1 -22,27 -22,28l-119 156c-133,173 -115,130 -80,235 61,185 126,378 182,565z"/>
   <path class="fil1" d="M1832 1166l0 -442c-8,-35 -451,-343 -498,-378 -68,-50 -66,-48 -202,22 -168,86 -387,238 -504,381 -71,88 -56,64 -11,197 49,148 96,294 144,445 31,98 5,69 167,128 74,28 143,52 216,80 99,37 61,35 184,-51 61,-44 107,-80 170,-125 57,-42 117,-84 172,-124 38,-27 145,-95 162,-133z"/>
   <path class="fil1" d="M449 2834l675 2c38,0 212,-255 235,-284 65,-83 49,-59 11,-176 -22,-66 -45,-135 -66,-200 -13,-44 -120,-382 -132,-399 -20,-30 -319,-126 -381,-150 -46,-18 -51,-20 -86,5l-386 283c-31,22 -48,34 -74,54 -33,24 -60,28 -60,69 -2,108 58,340 91,438 48,142 110,242 173,358z"/>
   <path class="fil1" d="M3362 2834c133,-247 202,-368 248,-666 4,-26 19,-117 16,-137 -3,-26 -9,-26 -31,-42l-398 -290c-162,-113 -63,-115 -422,18 -177,65 -116,-3 -240,370l-113 348c-22,63 -21,52 17,100l197 256c35,47 38,43 110,43 202,-2 416,9 616,0z"/>
   <path class="fil1" d="M1319 1733l222 697 733 0 220 -696 -510 -366c-21,-15 -54,-36 -74,-53 -68,28 -521,385 -591,418z"/>
   <path class="fil0" d="M3435 3416c-23,13 -42,20 -34,70 9,52 315,337 356,377l1140 1141c25,25 76,91 136,53 103,-65 -76,-200 -111,-235l-1347 -1347c-30,-31 -72,-95 -140,-59z"/>
   <path class="fil1" d="M3169 1502l458 329c8,-280 -144,-692 -281,-863 -33,49 -155,453 -177,534z"/>
   <path class="fil1" d="M1449 245l457 336 226 -166c37,-27 70,-52 113,-84 40,-29 78,-58 117,-86 -305,-83 -608,-80 -913,0z"/>
   <path class="fil1" d="M1296 3522l-172 -538 -561 -1c32,80 184,199 232,243 68,64 201,152 285,197 71,38 152,66 216,99z"/>
   <path class="fil0" d="M3971 1396c-44,11 -86,67 -13,142l723 722c28,29 86,107 145,92 154,-38 -73,-226 -111,-264l-599 -600c-28,-27 -86,-106 -145,-92z"/>
   <path class="fil0" d="M1379 3837c-128,58 43,190 77,223 69,69 132,132 201,201 68,68 129,129 197,197 36,36 160,192 232,172 66,-17 45,-103 17,-136 -29,-34 -66,-66 -98,-98 -70,-70 -132,-132 -202,-202 -68,-68 -129,-129 -197,-196 -63,-64 -162,-190 -227,-161z"/>
   <path class="fil0" d="M2377 3860c-22,16 -4,-10 -24,21 -44,69 72,155 120,203l394 394c36,36 152,191 229,136 94,-67 -49,-173 -97,-220l-491 -492c-28,-28 -70,-87 -131,-42z"/>
   <path class="fil0" d="M4049 2515c-108,63 3,133 89,219l492 492c26,26 60,82 121,54 121,-58 -61,-201 -86,-226l-394 -394c-41,-41 -150,-187 -222,-145z"/>
   <path class="fil0" d="M3369 4106c-116,63 43,173 160,290 46,47 86,86 133,132 31,30 98,131 167,91 93,-53 -23,-151 -30,-159l-265 -266c-34,-34 -96,-125 -165,-88z"/>
   <path class="fil0" d="M4319 3583c-106,60 77,197 178,297 47,46 87,86 133,132 29,28 86,121 156,80 88,-50 6,-128 -35,-161l-266 -265c-35,-36 -90,-127 -166,-83z"/>
  </g>
 </g>
</svg>
