<?xml version="1.0" encoding="UTF-8"?>
<!DOCTYPE svg PUBLIC "-//W3C//DTD SVG 1.1//EN" "http://www.w3.org/Graphics/SVG/1.1/DTD/svg11.dtd">
<!-- Creator: CorelDRAW X7 -->
<svg xmlns="http://www.w3.org/2000/svg" xml:space="preserve" width="5.25in" height="5.2in" version="1.1" style="shape-rendering:geometricPrecision; text-rendering:geometricPrecision; image-rendering:optimizeQuality; fill-rule:evenodd; clip-rule:evenodd"
viewBox="0 0 5250 5200"
 xmlns:xlink="http://www.w3.org/1999/xlink">
 <defs>
  <style type="text/css">
   <![CDATA[
    .fil0 {fill:#A734FD}
    .fil1 {fill:white}
   ]]>
  </style>
 </defs>
 <g id="Layer_x0020_1">
  <metadata id="CorelCorpID_0Corel-Layer"/>
  <g id="_2958408837184">
   <path class="fil0" d="M538 2253l0 2614c-129,0 -281,-8 -407,0 -58,3 -101,32 -89,100 11,68 72,67 142,66l4869 0c216,1 164,-159 52,-166 -125,-8 -278,0 -406,0l0 -2614 314 229c31,25 74,65 126,50 92,-27 59,-215 59,-308 0,-350 56,-276 -239,-489 -664,-476 -1343,-995 -2004,-1470 -301,-216 -302,-276 -450,-162l-528 388c-72,52 -139,101 -211,153l-210 154c-336,254 -731,524 -1056,775 -68,52 -139,103 -210,154l-216 159c-62,59 -36,228 -36,328 0,71 -52,457 174,278l215 -160c38,-30 70,-57 111,-79z"/>
   <path class="fil1" d="M704 2141l0 2726 3828 0 0 -2726c-5,-26 -195,-155 -232,-184l-1682 -1227c-40,22 -79,55 -120,85l-1320 967c-41,30 -456,319 -474,359z"/>
   <path class="fil0" d="M2119 3648l0 137c-159,0 -167,8 -167,166 2,298 11,196 84,260 0,227 -20,240 166,240 0,310 122,332 416,332 294,0 416,-22 416,-332 185,0 167,-12 167,-240l53 -30c16,-13 24,-27 28,-54 7,-43 2,-119 2,-165 1,-164 1,-177 -166,-177l0 -137c86,-39 132,-95 180,-130 73,-53 181,-219 220,-300 210,-437 78,-911 -275,-1212 -471,-402 -1352,-252 -1583,498 -93,302 -15,677 173,901 70,82 164,189 286,243z"/>
   <path class="fil1" d="M2285 3785c222,0 444,0 666,0 0,-254 -21,-219 104,-292 257,-153 420,-458 391,-789 -35,-411 -392,-749 -828,-749 -667,0 -1097,762 -647,1353 161,212 294,180 312,281 8,45 2,145 2,196z"/>
   <path class="fil1" d="M205 2016l1 269 2101 -1537c380,-273 242,-273 623,0 101,72 197,146 300,220l1800 1317 2 -269c0,-38 -5,-22 -24,-39l-2390 -1746c-45,24 -107,75 -150,106 -705,507 -1412,1046 -2119,1553 -29,21 -144,86 -144,126z"/>
   <path class="fil0" d="M2339 2461c-47,24 -75,86 -28,133 38,38 121,26 182,26 67,0 370,8 408,-9 48,-21 67,-90 25,-132 -39,-38 -122,-26 -183,-26 -67,0 -367,-10 -404,8z"/>
   <polygon class="fil1" points="2119,4034 3118,4034 3118,3951 2119,3951 "/>
   <path class="fil1" d="M2369 4503c0,152 101,114 384,114 125,0 115,-57 115,-166l-499 0 0 52z"/>
   <polygon class="fil1" points="2202,4284 3034,4284 3034,4201 2202,4201 "/>
   <path class="fil0" d="M3477 1828c-157,56 -144,264 -6,211 143,-55 138,-258 6,-211z"/>
   <path class="fil0" d="M1340 2628c-141,70 8,212 147,150 47,-21 66,-90 24,-133 -30,-30 -127,-40 -171,-17z"/>
   <path class="fil0" d="M3753 2711c-140,70 9,212 147,150 47,-21 67,-90 24,-132 -30,-31 -126,-40 -171,-18z"/>
   <path class="fil0" d="M1770 3534c-161,62 -139,262 -3,211 31,-12 101,-84 108,-120 10,-63 -46,-113 -105,-91z"/>
   <path class="fil0" d="M2588 1462c-101,51 -63,290 63,234 95,-41 60,-295 -63,-234z"/>
   <path class="fil0" d="M1712 1825c-148,44 18,241 109,216 142,-38 -20,-243 -109,-216z"/>
   <path class="fil0" d="M3415 3537c-32,12 -50,8 -55,63 -5,58 99,174 174,145 118,-46 -22,-246 -119,-208z"/>
   <path class="fil0" d="M2834 3813l-155 -5 9 -1007c31,-133 152,-90 162,6 -2,135 -11,877 -16,1006z"/>
   <path class="fil0" d="M2367 3811l155 -1 11 -1008c-29,-133 -150,-92 -163,3 0,135 -5,878 -3,1006z"/>
  </g>
 </g>
</svg>
