<?xml version="1.0" encoding="UTF-8"?>
<!DOCTYPE svg PUBLIC "-//W3C//DTD SVG 1.1//EN" "http://www.w3.org/Graphics/SVG/1.1/DTD/svg11.dtd">
<!-- Creator: CorelDRAW X7 -->
<svg xmlns="http://www.w3.org/2000/svg" xml:space="preserve" width="5.25in" height="5.2in" version="1.1" style="shape-rendering:geometricPrecision; text-rendering:geometricPrecision; image-rendering:optimizeQuality; fill-rule:evenodd; clip-rule:evenodd"
viewBox="0 0 5250 5200"
 xmlns:xlink="http://www.w3.org/1999/xlink">
 <defs>
  <style type="text/css">
   <![CDATA[
    .fil0 {fill:#A734FD}
    .fil1 {fill:white}
    .fil2 {fill:white}
   ]]>
  </style>
 </defs>
 <g id="Layer_x0020_1">
  <metadata id="CorelCorpID_0Corel-Layer"/>
  <g id="_2958297075728">
   <path class="fil0" d="M1218 5118c49,-13 108,11 158,11 49,0 108,-24 157,-11 147,15 559,-90 672,-257 71,-106 45,-239 -49,-320 -121,-105 -261,-125 -312,-157 14,-29 44,-47 65,-72 21,-24 46,-52 67,-79l67 -79c45,-50 214,-235 67,-259 -74,-12 -119,96 -186,171l-104 118c-25,26 -40,53 -68,78 -34,32 -45,44 -72,73 -75,81 -166,155 -223,215l-81 68 -435 -421c-13,-15 -20,-20 -32,-36 -100,-128 -197,-223 -292,-377 -68,-111 -133,-215 -190,-347 -120,-282 -188,-556 -101,-885 64,-240 192,-415 368,-560 11,-10 28,-21 40,-30 14,-10 23,-19 39,-30 403,-260 915,-239 1297,69l195 212c268,357 234,848 44,1256 -29,63 -59,120 -92,176 -65,110 0,156 60,144 48,-9 77,-81 113,-147 85,-154 183,-427 206,-601 47,-351 -22,-597 -176,-860 -19,-34 -29,-47 -52,-78l-120 -141c-89,-91 -268,-214 -408,-268 -425,-165 -889,-101 -1239,181 -325,261 -510,688 -452,1135 58,444 284,796 537,1120l220 254c-24,16 -124,46 -164,65 -342,161 -327,445 82,594 81,30 305,85 394,75z"/>
   <path class="fil0" d="M4347 94l-284 0c-19,10 -129,32 -164,44 -52,17 -104,40 -146,62 -176,92 -322,242 -409,420 -23,46 -54,118 5,149 74,39 100,-24 124,-74 43,-89 121,-196 175,-239 94,-76 125,-109 254,-161 427,-173 898,33 1072,468 176,438 -123,970 -394,1269 -23,25 -29,39 -49,59 -60,58 -266,280 -323,306 -79,-53 -193,-182 -268,-255l-62 -68c-28,-30 -34,-39 -62,-69l-117 -151c-136,-186 -292,-447 -306,-747 -2,-43 0,-79 -24,-104 -23,-24 -70,-30 -100,-5 -95,78 61,514 114,620 65,131 240,401 337,507 24,25 85,85 97,113 -47,12 -93,32 -136,54 -50,27 -82,53 -111,88 -33,39 -54,81 -47,147 22,233 465,307 692,305 160,-2 351,-28 493,-96 140,-67 256,-196 142,-353 -52,-72 -143,-106 -249,-147l98 -116c17,-17 32,-38 48,-59 212,-288 444,-609 429,-1023 -10,-265 -120,-497 -250,-634 -272,-286 -473,-261 -579,-310z"/>
   <path class="fil0" d="M4159 627c-241,28 -405,251 -376,477 28,224 221,403 476,377 217,-22 411,-233 377,-480 -30,-218 -222,-404 -477,-374z"/>
   <path class="fil1" d="M1030 4511c-348,62 -604,275 -70,419 660,178 1617,-157 857,-396 -30,-9 -81,-30 -104,-18 -7,4 -240,221 -288,255 -35,24 -67,22 -98,0 -70,-50 -73,-63 -112,-95 -16,-12 -24,-16 -39,-30 -55,-51 -91,-86 -146,-135z"/>
   <path class="fil0" d="M1285 2310c-94,16 -284,80 -256,180 34,122 159,-21 301,-38 405,-46 605,485 250,717 -189,125 -497,42 -575,-210 -19,-60 -26,-129 -13,-194 8,-36 21,-63 -4,-96 -33,-42 -130,-78 -148,119 -6,71 1,139 19,202 63,220 271,383 509,385 138,1 261,-50 341,-116 434,-357 115,-1044 -424,-949z"/>
   <path class="fil1" d="M4139 783c-229,63 -299,349 -87,503 195,142 496,-41 430,-299 -35,-136 -169,-252 -343,-204z"/>
   <path class="fil2" d="M3917 2364c-702,182 286,452 726,238 143,-70 129,-131 -2,-193 -24,-11 -129,-49 -150,-49 -22,1 -97,73 -114,91 -31,31 -72,62 -108,91 -68,56 -111,21 -184,-53l-104 -96c-21,-21 -28,-39 -64,-29z"/>
   <path class="fil0" d="M4061 4650c-52,13 -75,80 -34,122 26,27 134,32 177,16 90,-34 58,-191 -143,-138z"/>
   <path class="fil0" d="M3207 3399c-45,22 -55,90 -17,123 26,21 137,25 175,11 45,-16 66,-85 22,-123 -31,-26 -145,-28 -180,-11z"/>
   <path class="fil0" d="M3139 2439c-54,13 -80,75 -45,120 25,31 127,31 174,18 92,-24 85,-189 -129,-138z"/>
   <path class="fil0" d="M3269 4657c-52,21 -59,87 -17,123 27,24 136,25 173,11 47,-17 60,-83 22,-121 -28,-28 -140,-29 -178,-13z"/>
   <path class="fil0" d="M2492 4661c-21,9 -12,-2 -31,19 -27,29 -20,78 6,102 27,26 138,28 178,13 49,-19 58,-89 17,-124 -29,-24 -132,-26 -170,-10z"/>
   <path class="fil0" d="M3684 4649c-107,17 -107,188 117,144 84,-16 109,-179 -117,-144z"/>
   <path class="fil0" d="M4767 3476c-66,21 -64,96 -19,130 46,35 101,78 147,62 129,-44 -35,-221 -128,-192z"/>
   <path class="fil0" d="M4381 3398c-47,20 -60,87 -16,123 28,22 136,27 173,12 48,-19 57,-88 22,-122 -28,-27 -141,-29 -179,-13z"/>
   <path class="fil0" d="M2880 4658c-49,22 -65,84 -20,123 27,23 136,29 175,11 42,-18 60,-86 20,-122 -27,-24 -139,-28 -175,-12z"/>
   <path class="fil0" d="M3647 3538c63,0 148,11 154,-67 7,-92 -90,-80 -154,-80 -121,0 -126,147 0,147z"/>
   <path class="fil0" d="M4039 3538c58,0 149,11 153,-67 4,-92 -81,-80 -153,-80 -127,0 -122,147 0,147z"/>
   <path class="fil0" d="M5064 4143c-38,18 -53,87 -63,138 -17,90 124,183 166,-44 13,-73 -38,-125 -103,-94z"/>
   <path class="fil0" d="M4880 4480c-26,13 -34,29 -55,45 -18,14 -47,32 -55,54 -24,64 37,122 101,94 22,-10 103,-77 111,-99 24,-67 -39,-124 -102,-94z"/>
   <path class="fil0" d="M2874 2564c-36,10 -97,77 -111,107 -31,65 23,127 89,105 26,-9 104,-106 106,-110 25,-59 -25,-120 -84,-102z"/>
   <path class="fil0" d="M4544 4642c-73,7 -126,-9 -144,58 -36,127 213,114 237,35 21,-67 -33,-99 -93,-93z"/>
   <path class="fil0" d="M2705 2918c-51,26 -47,75 -36,149 9,58 43,108 112,76 64,-30 50,-291 -76,-225z"/>
   <path class="fil0" d="M5021 3760c-64,30 -43,80 -21,139 18,50 36,116 113,87 55,-21 46,-85 25,-140 -19,-50 -45,-119 -117,-86z"/>
   <path class="fil0" d="M2864 3261c-65,18 -61,98 -22,133 186,166 228,-11 158,-66l-60 -47c-22,-18 -43,-29 -76,-20z"/>
  </g>
 </g>
</svg>
