<?xml version="1.0" standalone="no"?>
<svg viewBox="0 0 200 200" xmlns="http://www.w3.org/2000/svg">
  <path fill="#A734FD" d="M40.5,-56.2C55.5,-44.9,72.5,-37,81.1,-23.4C89.6,-9.7,89.6,9.7,81.5,24C73.4,38.3,57.3,47.4,42.4,54.8C27.4,62.1,13.7,67.6,-2.2,70.6C-18.1,73.6,-36.1,74.1,-47.2,65.5C-58.2,56.9,-62.3,39.2,-63.9,23.3C-65.6,7.4,-64.9,-6.7,-61.8,-21.3C-58.7,-35.8,-53.2,-50.7,-42.5,-63.4C-31.8,-76.1,-15.9,-86.6,-1.6,-84.4C12.8,-82.3,25.6,-67.5,40.5,-56.2Z" transform="translate(100 100)" />
</svg>
